<?xml version="1.0" standalone="no"?>
<!DOCTYPE svg PUBLIC "-//W3C//DTD SVG 20010904//EN"
 "http://www.w3.org/TR/2001/REC-SVG-20010904/DTD/svg10.dtd">
<svg version="1.0" xmlns="http://www.w3.org/2000/svg"
 width="648.000000pt" height="981.000000pt" viewBox="0 0 648.000000 981.000000"
 preserveAspectRatio="xMidYMid meet">

<g transform="translate(0.000000,981.000000) scale(0.100000,-0.100000)"
fill="#000000" stroke="none">
<path d="M5116 9766 c-26 -27 -39 -59 -69 -167 -20 -74 -37 -149 -37 -166 0
-29 4 -33 34 -38 37 -7 81 11 117 48 12 12 44 68 71 125 44 91 49 108 43 144
-16 90 -99 118 -159 54z"/>
<path d="M5597 9445 c-53 -41 -205 -207 -287 -315 -132 -174 -355 -527 -495
-785 -120 -220 -166 -288 -191 -278 -10 3 16 63 97 225 80 160 107 224 99 232
-7 7 -16 7 -28 0 -36 -22 -161 -191 -353 -476 -110 -164 -204 -298 -209 -298
-5 0 -11 8 -15 19 -3 10 -14 26 -24 35 -18 17 -20 17 -38 -1 -10 -11 -39 -49
-65 -86 -26 -36 -58 -73 -72 -82 -23 -15 -27 -15 -50 0 -24 16 -28 16 -51 1
-30 -19 -48 -48 -150 -231 -117 -209 -150 -286 -189 -445 -37 -153 -75 -268
-201 -620 -42 -118 -158 -455 -256 -749 -99 -294 -187 -547 -197 -563 -22 -37
-63 -36 -73 2 -4 14 -21 68 -38 120 -33 103 -56 190 -71 272 -6 29 -44 175
-85 323 -106 385 -172 679 -238 1070 -43 251 -54 276 -187 406 l-98 96 -75 13
c-104 17 -173 10 -222 -23 -44 -30 -78 -33 -115 -12 -35 20 -66 18 -88 -5 -10
-11 -36 -64 -56 -118 -21 -53 -53 -122 -71 -152 -51 -86 -65 -147 -72 -317 -6
-149 -6 -153 20 -206 19 -38 54 -79 119 -139 106 -98 156 -172 194 -293 14
-44 46 -131 71 -195 25 -63 103 -277 173 -475 185 -524 225 -627 290 -760 47
-97 62 -138 75 -215 8 -52 34 -171 56 -264 44 -184 47 -249 19 -396 -11 -57
-11 -73 4 -123 15 -53 30 -71 161 -207 82 -86 168 -186 200 -235 72 -108 90
-120 175 -120 53 0 75 6 118 29 94 52 131 122 132 251 2 369 119 1018 278
1540 22 72 70 229 107 350 36 121 77 274 90 341 17 88 34 141 61 195 20 41 58
126 83 189 34 85 67 145 127 230 45 63 127 196 184 295 56 99 125 214 153 255
28 41 77 113 108 160 142 211 418 810 373 810 -19 0 -70 -51 -125 -125 -54
-74 -109 -125 -134 -125 -4 0 -6 28 -3 63 3 53 16 88 82 227 237 501 397 786
509 907 37 40 94 80 102 71 7 -7 -44 -147 -78 -214 -20 -39 -67 -122 -105
-185 -38 -63 -84 -142 -101 -177 -31 -62 -32 -63 -10 -60 17 2 62 60 170 216
81 117 151 213 156 213 4 0 9 -16 11 -36 4 -42 19 -45 62 -9 45 38 56 68 64
165 7 98 33 192 74 261 15 26 91 142 170 258 158 235 165 254 108 289 -52 32
-104 28 -159 -14z m-48 -267 c-59 -118 -201 -275 -237 -264 -39 13 -31 35 48
138 124 161 122 160 166 167 21 4 40 6 42 5 2 -1 -6 -22 -19 -46z"/>
<path d="M6350 6489 l-58 -61 -30 16 c-45 23 -55 21 -129 -30 -77 -53 -244
-134 -350 -170 -97 -33 -194 -32 -354 3 -106 23 -147 27 -284 27 -146 0 -168
-3 -250 -28 -195 -59 -411 -168 -580 -293 -126 -93 -337 -308 -412 -418 -120
-178 -209 -391 -253 -603 -24 -120 -25 -168 -4 -270 43 -211 180 -373 384
-451 85 -33 188 -51 650 -115 179 -25 350 -53 379 -62 132 -39 221 -104 221
-162 -1 -80 -82 -175 -282 -330 -224 -171 -278 -205 -647 -392 -190 -97 -415
-218 -500 -269 -215 -129 -684 -444 -698 -469 -10 -17 -10 -26 4 -50 32 -56
30 -57 -267 -170 l-175 -66 -110 -1 c-104 -1 -113 -2 -170 -33 -114 -61 -158
-101 -180 -164 -16 -47 -17 -61 -7 -84 l13 -27 89 6 c115 7 160 28 241 109 82
82 178 131 303 153 93 16 188 19 220 6 17 -7 17 -9 -5 -34 -13 -15 -61 -42
-106 -61 -91 -38 -204 -98 -221 -118 -12 -14 -27 -68 -19 -68 2 0 35 11 71 25
75 28 123 32 151 11 37 -27 0 -54 -180 -132 -181 -79 -174 -78 -302 -58 -39 6
-53 0 -175 -66 -226 -123 -315 -178 -348 -216 -17 -20 -29 -38 -27 -40 3 -3
29 4 58 16 30 11 64 20 77 20 20 0 22 -4 16 -22 -3 -13 -7 -24 -8 -24 -5 -6
-165 -83 -239 -115 -127 -56 -186 -45 -112 22 26 24 35 40 33 59 -4 34 -39 30
-93 -10 -22 -16 -55 -37 -73 -47 -32 -17 -34 -17 -77 6 -59 31 -79 26 -250
-62 -151 -78 -160 -87 -135 -147 18 -44 4 -69 -53 -96 -65 -30 -76 -30 -148 2
-51 23 -62 25 -88 14 -16 -6 -39 -22 -52 -36 -22 -24 -22 -24 -4 -65 23 -51
13 -71 -41 -83 -120 -26 -178 -63 -264 -172 -40 -50 -60 -84 -60 -103 0 -58
50 -67 121 -23 139 88 560 302 593 302 23 0 87 -44 76 -52 -69 -54 -176 -123
-300 -193 -181 -103 -268 -145 -373 -179 -63 -21 -297 -144 -495 -261 -51 -30
-61 -51 -36 -70 36 -27 109 -12 143 29 7 8 54 31 105 51 52 20 149 68 217 107
68 39 149 85 179 102 85 48 214 106 237 106 11 0 32 -9 46 -20 14 -11 34 -20
46 -20 44 0 311 128 498 239 173 102 316 168 427 196 116 29 134 38 142 70 4
18 16 28 43 35 20 5 39 10 43 10 4 0 61 23 127 51 106 44 121 54 130 81 16 44
15 46 -25 54 -27 5 -51 1 -92 -17 -44 -18 -76 -23 -147 -24 -99 -1 -95 1 -406
-163 -120 -63 -263 -109 -285 -92 -7 7 -14 21 -14 30 0 21 124 118 231 180 70
41 383 200 394 200 3 0 126 60 272 132 l267 133 98 -2 c93 -3 102 -1 151 27
29 16 125 54 212 84 88 30 271 99 407 154 211 86 344 130 353 120 2 -2 -2 -19
-9 -38 -10 -33 -23 -41 -181 -120 -173 -86 -192 -102 -163 -137 11 -13 28 -15
113 -10 55 4 123 13 150 21 28 9 219 111 425 227 593 334 597 337 676 425 185
208 179 203 569 429 488 283 670 429 830 670 76 114 97 173 98 270 0 103 -26
178 -124 362 -96 179 -163 250 -300 317 -141 68 -260 93 -529 111 -225 15
-566 59 -734 95 -158 35 -220 92 -252 238 -42 187 24 378 186 542 80 82 237
204 309 240 62 31 138 37 203 15 123 -40 307 -168 471 -328 113 -111 191 -160
300 -192 72 -21 94 -14 186 54 135 100 304 296 355 412 53 123 59 163 63 490
4 274 3 310 -12 339 -12 24 -16 52 -14 104 6 171 -2 179 -91 85z m-4286 -5555
c4 -9 4 -19 1 -22 -6 -6 -35 18 -35 29 0 16 28 10 34 -7z"/>
</g>
</svg>
